<svg width="262" height="80" viewBox="0 0 262 80" fill="none" xmlns="http://www.w3.org/2000/svg">
<path d="M2 42.0426H56.8941" stroke="black" stroke-width="2" stroke-miterlimit="10"/>
<path d="M46.482 2.36829L90.964 78.2179H2L46.482 2.36829Z" stroke="black" stroke-width="2" stroke-miterlimit="10"/>
<path d="M46.3281 23.6649L71.6306 67.6318H21.0315L46.3281 23.6649Z" stroke="black" stroke-width="2" stroke-miterlimit="10"/>
<path d="M24.6758 51.0125H71.0036" stroke="black" stroke-width="2" stroke-miterlimit="10"/>
<path d="M81.8652 27.1462L87.0299 23.807C89.2424 26.643 91.1592 29.1533 95.0933 29.1533C98.5364 29.1533 99.8615 26.5956 99.8615 25.222C99.8615 18.8692 84.6694 18.8218 84.6694 9.36057C84.6694 3.51095 89.7334 0.0828857 95.7795 0.0828857C99.27 0.0828857 102.956 1.45648 105.417 3.59976L101.287 7.66726C99.7137 6.34103 97.6963 5.10953 95.7795 5.10953C93.3718 5.10953 91.1592 6.84428 91.1592 9.17702C91.1592 14.2984 106.304 16.4417 106.304 24.5352C106.304 30.3375 100.554 34.2274 94.9927 34.2274C89.4317 34.2274 84.9593 31.0302 81.8652 27.1403V27.1462Z" fill="black"/>
<path d="M154.738 28.6974H167.274L166.783 33.955H148.147V0.449951H166.783L167.274 5.7075H154.738V17.7264H165.31L164.819 22.8005H154.738V28.6974Z" fill="black"/>
<path d="M188.027 5.34042V33.9491H181.436V5.34042H172.687L173.178 0.449951H196.285L196.777 5.34042H188.027Z" fill="black"/>
<path d="M231.343 29.5204C228.048 32.534 223.428 34.4109 218.411 34.4109C208.673 34.4109 199.876 26.8265 199.876 17.2291C199.876 8.18236 208.135 0 218.411 0C222.688 0 226.67 1.37359 229.77 3.65897L227.362 8.73298C225.149 6.81468 222.103 5.672 218.754 5.672C212.264 5.672 207.005 10.9295 207.005 17.2824C207.005 23.6353 211.921 28.8455 218.754 28.8455C222.002 28.8455 225.001 27.6554 227.309 25.6898L231.343 29.5264V29.5204Z" fill="black"/>
<path d="M261.828 0.449951V33.9491H255.238V22.9781H243.684V33.9491H237.094V0.449951H243.684V17.7264H255.238V0.449951H261.828Z" fill="black"/>
<path d="M93.1055 72.7353L98.2701 69.3961C100.483 72.2321 102.399 74.7425 106.334 74.7425C109.777 74.7425 111.102 72.1847 111.102 70.8111C111.102 64.4583 95.9096 64.4109 95.9096 54.9497C95.9096 49.1001 100.974 45.672 107.02 45.672C110.51 45.672 114.196 47.0456 116.657 49.1889L112.528 53.2564C110.954 51.9301 108.937 50.6986 107.02 50.6986C104.612 50.6986 102.399 52.4334 102.399 54.7661C102.399 59.8875 117.544 62.0308 117.544 70.1243C117.544 75.9266 111.794 79.8165 106.233 79.8165C100.672 79.8165 96.1995 76.6193 93.1055 72.7353Z" fill="black"/>
<path d="M142.273 68.7567H137.256V79.5442H130.666V46.045H142.273C148.567 46.045 154.466 51.0243 154.466 57.3772C154.466 63.2268 149.206 68.7567 142.273 68.7567ZM142.178 63.7301C145.473 63.7301 148.224 60.8053 148.224 57.3772C148.224 54.18 145.568 51.1131 142.178 51.1131H137.262V63.7301H142.178Z" fill="black"/>
<path d="M230.19 75.1095C226.895 78.1232 222.274 80 217.258 80C207.52 80 198.723 72.4156 198.723 62.8182C198.723 53.7655 206.982 45.5891 217.258 45.5891C221.535 45.5891 225.516 46.9627 228.616 49.2481L226.208 54.3221C223.996 52.4038 220.949 51.2611 217.601 51.2611C211.111 51.2611 205.852 56.5187 205.852 62.8715C205.852 69.2244 210.768 74.4346 217.601 74.4346C220.849 74.4346 223.848 73.2445 226.155 71.2789L230.19 75.1155V75.1095Z" fill="black"/>
<path d="M249.464 74.2866H262L261.509 79.5442H242.874V46.045H261.509L262 51.3026H249.464V63.3215H260.036L259.545 68.3955H249.464V74.2925V74.2866Z" fill="black"/>
<path d="M179.875 67.6377L180.922 70.0355H180.91L185.051 79.6803H191.541L176.597 45.8141L173.503 52.8182L179.875 67.6377Z" fill="black"/>
<path d="M179.112 70.0356H172.267L175.716 62.1374L172.598 54.8787L161.648 79.6803H168.22L170.202 75.2931H181.371L179.112 70.0356Z" fill="black"/>
<path d="M118.304 34V0.399998H124.88V14.56H125.12L131.12 0.399998H137.888L130.88 16.432L138.224 34H130.928L125.216 19.312H124.88V34H118.304Z" fill="black"/>
</svg>
